<svg width="21" height="20" viewBox="0 0 21 20" fill="none" xmlns="http://www.w3.org/2000/svg">
<path d="M10.5006 0.000640776C4.9759 0.000640776 0.5 4.59314 0.5 10.2532C0.5 14.7855 3.36518 18.627 7.33605 19.9822C7.83796 20.079 8.01922 19.7618 8.01922 19.4875C8.01922 19.244 8.0136 18.6001 8.00984 17.7452C5.22655 18.363 4.64026 16.3669 4.64026 16.3669C4.18461 15.1853 3.52706 14.8681 3.52706 14.8681C2.62201 14.2344 3.59894 14.2478 3.59894 14.2478C4.60151 14.3177 5.12904 15.3019 5.12904 15.3019C6.02097 16.8706 7.46919 16.4169 8.04235 16.1529C8.12985 15.4922 8.39049 15.0379 8.67426 14.7848C6.45412 14.5279 4.1196 13.6468 4.1196 9.71814C4.1196 8.59613 4.50713 7.68237 5.14779 6.96469C5.03716 6.70773 4.69839 5.66325 5.23592 4.25097C5.23592 4.25097 6.07285 3.97735 7.98609 5.30249C8.78677 5.07501 9.63682 4.9616 10.4862 4.95583C11.3363 4.9616 12.1857 5.07565 12.9864 5.30249C14.8884 3.97735 15.7247 4.25097 15.7247 4.25097C16.2616 5.66325 15.9228 6.70709 15.8253 6.96469C16.4597 7.68237 16.8473 8.59677 16.8473 9.71814C16.8473 13.6558 14.5096 14.524 12.287 14.7746C12.6345 15.0815 12.9602 15.7127 12.9602 16.6707C12.9602 18.0419 12.9477 19.1466 12.9477 19.4805C12.9477 19.7471 13.1227 20.0675 13.6377 19.9643C17.6379 18.6231 20.5 14.7784 20.5 10.2526C20.5 4.5925 16.0241 0 10.4994 0L10.5006 0.000640776Z" fill="#ADADAD"/>
</svg>
