<svg width="21" height="20" viewBox="0 0 21 20" fill="none" xmlns="http://www.w3.org/2000/svg">
<path d="M4.9773 20H0.830726V6.64714H4.9773V20ZM2.90151 4.82571C1.57575 4.82571 0.5 3.72714 0.5 2.40143C0.5 1.07571 1.57504 0 2.90151 0C4.22799 0 5.30303 1.075 5.30303 2.40143C5.30303 3.72714 4.22728 4.82571 2.90151 4.82571ZM20.4964 20H16.3591V13.5C16.3591 11.9507 16.3277 9.96429 14.2033 9.96429C12.0476 9.96429 11.7168 11.6471 11.7168 13.3886V20H7.57454V6.64714H11.5511V8.46857H11.609C12.1626 7.41929 13.5148 6.31214 15.532 6.31214C19.7285 6.31214 20.5 9.07572 20.5 12.665V20H20.4964Z" fill="#ADADAD"/>
</svg>
